<svg width="1200" height="360" viewBox="0 0 1200 360" fill="none" xmlns="http://www.w3.org/2000/svg" role="img" aria-labelledby="title desc">
  <title id="title">MyWorkOps brand card</title>
  <desc id="desc">Professional brand card for MyWorkOps private work automation and DevOps delivery.</desc>
  <rect width="1200" height="360" rx="0" fill="#0B1220"/>
  <rect x="40" y="40" width="1120" height="280" rx="20" fill="#101A2E" stroke="#1E3A5F" stroke-width="2"/>
  <path d="M96 232V116h28l42 69 42-69h28v116h-28v-70l-34 56h-16l-34-56v70H96Z" fill="#F8FAFC"/>
  <path d="M283 232l-39-116h30l24 78 26-78h25l26 78 24-78h30l-39 116h-28l-26-75-26 75h-28Z" fill="#38BDF8"/>
  <path d="M469 234c-17 0-31-6-42-17-11-12-16-26-16-43s5-31 16-42c11-12 25-18 42-18s31 6 42 18c11 11 16 25 16 42s-5 31-16 43c-11 11-25 17-42 17Zm0-27c8 0 15-3 20-9 5-6 8-14 8-24s-3-18-8-24c-5-6-12-9-20-9s-15 3-20 9c-5 6-8 14-8 24s3 18 8 24c5 6 12 9 20 9Z" fill="#F8FAFC"/>
  <path d="M553 232V116h53c13 0 24 4 32 12s12 18 12 30c0 9-2 17-7 24-5 7-11 12-20 15l31 35h-35l-27-31h-10v31h-29Zm29-56h21c6 0 10-2 13-5 3-3 5-8 5-13s-2-9-5-12c-3-3-7-5-13-5h-21v35Z" fill="#F8FAFC"/>
  <path d="M676 232V116h29v48l42-48h36l-49 54 52 62h-37l-44-53v53h-29Z" fill="#F8FAFC"/>
  <path d="M842 234c-18 0-34-4-48-13v-30c7 5 15 10 24 13 9 3 17 5 25 5 7 0 12-1 15-4 4-2 6-6 6-10 0-5-3-9-8-12-5-3-13-6-25-10-14-5-24-11-30-18-7-7-10-16-10-28 0-13 5-24 15-32 10-8 24-12 41-12 16 0 31 4 44 11v29c-15-9-29-14-43-14-6 0-11 1-14 4-4 2-5 6-5 10 0 5 2 8 7 11s12 6 22 9c15 5 27 12 34 19 7 8 11 17 11 29 0 13-5 24-16 32-10 8-24 11-41 11Z" fill="#38BDF8"/>
  <text x="96" y="278" fill="#CBD5E1" font-family="Segoe UI, Arial, sans-serif" font-size="28" font-weight="500">Private Work Automation · DevOps Delivery · Professional Tooling</text>
  <text x="913" y="278" fill="#94A3B8" font-family="Segoe UI, Arial, sans-serif" font-size="20" font-weight="500">Led by Helton Trindade</text>
</svg>
